<mxfile host="Electron" modified="2024-05-15T22:25:21.446Z" agent="Mozilla/5.0 (Windows NT 10.0; Win64; x64) AppleWebKit/537.36 (KHTML, like Gecko) draw.io/24.4.0 Chrome/120.0.6099.109 Electron/28.1.0 Safari/537.36" etag="jBiH_WqY8QOpLfcZp34k" version="24.4.0" type="device">
  <diagram name="Seite-1" id="QWOHBmbsZOoaGWotC_pC">
    <mxGraphModel dx="1247" dy="727" grid="1" gridSize="10" guides="1" tooltips="1" connect="1" arrows="1" fold="1" page="1" pageScale="1" pageWidth="1169" pageHeight="1654" background="#4D4DFF" math="0" shadow="0">
      <root>
        <mxCell id="0" />
        <mxCell id="1" parent="0" />
        <mxCell id="TCXFouMQMzG_r3uYfWe2-33" value="MonoBehavior" style="swimlane;childLayout=stackLayout;horizontal=1;startSize=120;horizontalStack=0;rounded=0;fontSize=14;fontStyle=0;strokeWidth=2;resizeParent=0;resizeLast=1;shadow=0;dashed=0;align=center;arcSize=4;whiteSpace=wrap;html=1;labelBackgroundColor=none;" vertex="1" parent="1">
          <mxGeometry x="20" y="20" width="140" height="50" as="geometry">
            <mxRectangle x="334" y="10" width="146" height="50" as="alternateBounds" />
          </mxGeometry>
        </mxCell>
        <mxCell id="TCXFouMQMzG_r3uYfWe2-36" value="Thing" style="swimlane;childLayout=stackLayout;horizontal=1;startSize=50;horizontalStack=0;rounded=0;fontSize=14;fontStyle=0;strokeWidth=2;resizeParent=0;resizeLast=1;shadow=0;dashed=0;align=center;arcSize=4;whiteSpace=wrap;html=1;labelBackgroundColor=none;" vertex="1" parent="1">
          <mxGeometry x="446" y="20" width="276" height="240" as="geometry" />
        </mxCell>
        <mxCell id="TCXFouMQMzG_r3uYfWe2-37" value="baseEntry&lt;div&gt;speed&lt;/div&gt;&lt;div&gt;health&lt;/div&gt;&lt;div&gt;amor / mr&lt;/div&gt;&lt;div&gt;damgeTaken()&lt;/div&gt;" style="align=left;strokeColor=none;fillColor=none;spacingLeft=4;fontSize=12;verticalAlign=top;resizable=0;rotatable=0;part=1;html=1;labelBackgroundColor=none;rounded=0;" vertex="1" parent="TCXFouMQMzG_r3uYfWe2-36">
          <mxGeometry y="50" width="276" height="190" as="geometry" />
        </mxCell>
        <mxCell id="TCXFouMQMzG_r3uYfWe2-38" style="edgeStyle=orthogonalEdgeStyle;rounded=0;orthogonalLoop=1;jettySize=auto;html=1;entryX=0;entryY=0.104;entryDx=0;entryDy=0;entryPerimeter=0;labelBackgroundColor=none;fontColor=default;" edge="1" parent="1" source="TCXFouMQMzG_r3uYfWe2-33" target="TCXFouMQMzG_r3uYfWe2-36">
          <mxGeometry relative="1" as="geometry">
            <mxPoint x="330" y="44" as="targetPoint" />
          </mxGeometry>
        </mxCell>
        <mxCell id="TCXFouMQMzG_r3uYfWe2-39" value="Troup" style="swimlane;childLayout=stackLayout;horizontal=1;startSize=50;horizontalStack=0;rounded=0;fontSize=14;fontStyle=0;strokeWidth=2;resizeParent=0;resizeLast=1;shadow=0;dashed=0;align=center;arcSize=4;whiteSpace=wrap;html=1;labelBackgroundColor=none;" vertex="1" parent="1">
          <mxGeometry x="190" y="320" width="160" height="120" as="geometry" />
        </mxCell>
        <mxCell id="TCXFouMQMzG_r3uYfWe2-40" value="+Attribute1&#xa;+Attribute2&#xa;+Attribute3" style="align=left;strokeColor=none;fillColor=none;spacingLeft=4;fontSize=12;verticalAlign=top;resizable=0;rotatable=0;part=1;html=1;labelBackgroundColor=none;rounded=0;" vertex="1" parent="TCXFouMQMzG_r3uYfWe2-39">
          <mxGeometry y="50" width="160" height="70" as="geometry" />
        </mxCell>
        <mxCell id="TCXFouMQMzG_r3uYfWe2-41" value="Enemy" style="swimlane;childLayout=stackLayout;horizontal=1;startSize=50;horizontalStack=0;rounded=0;fontSize=14;fontStyle=0;strokeWidth=2;resizeParent=0;resizeLast=1;shadow=0;dashed=0;align=center;arcSize=4;whiteSpace=wrap;html=1;labelBackgroundColor=none;" vertex="1" parent="1">
          <mxGeometry x="840" y="320" width="160" height="120" as="geometry" />
        </mxCell>
        <mxCell id="TCXFouMQMzG_r3uYfWe2-42" value="+Attribute1&#xa;+Attribute2&#xa;+Attribute3" style="align=left;strokeColor=none;fillColor=none;spacingLeft=4;fontSize=12;verticalAlign=top;resizable=0;rotatable=0;part=1;html=1;labelBackgroundColor=none;rounded=0;" vertex="1" parent="TCXFouMQMzG_r3uYfWe2-41">
          <mxGeometry y="50" width="160" height="70" as="geometry" />
        </mxCell>
        <mxCell id="TCXFouMQMzG_r3uYfWe2-43" style="edgeStyle=orthogonalEdgeStyle;rounded=0;orthogonalLoop=1;jettySize=auto;html=1;entryX=0.5;entryY=0;entryDx=0;entryDy=0;exitX=0.5;exitY=1;exitDx=0;exitDy=0;labelBackgroundColor=none;fontColor=default;" edge="1" parent="1" source="TCXFouMQMzG_r3uYfWe2-37" target="TCXFouMQMzG_r3uYfWe2-39">
          <mxGeometry relative="1" as="geometry" />
        </mxCell>
        <mxCell id="TCXFouMQMzG_r3uYfWe2-44" style="edgeStyle=orthogonalEdgeStyle;rounded=0;orthogonalLoop=1;jettySize=auto;html=1;entryX=0.5;entryY=0;entryDx=0;entryDy=0;exitX=0.5;exitY=1;exitDx=0;exitDy=0;labelBackgroundColor=none;fontColor=default;" edge="1" parent="1" source="TCXFouMQMzG_r3uYfWe2-37" target="TCXFouMQMzG_r3uYfWe2-41">
          <mxGeometry relative="1" as="geometry" />
        </mxCell>
      </root>
    </mxGraphModel>
  </diagram>
</mxfile>
